<?xml version="1.0" encoding="UTF-8" standalone="no"?>
<!-- Created with Inkscape (http://www.inkscape.org/) -->

<svg
   width="50"
   height="50"
   viewBox="0 0 13.229165 13.229165"
   version="1.1"
   id="svg5"
   inkscape:version="1.2.2 (b0a8486541, 2022-12-01)"
   sodipodi:docname="shift.svg"
   xml:space="preserve"
   xmlns:inkscape="http://www.inkscape.org/namespaces/inkscape"
   xmlns:sodipodi="http://sodipodi.sourceforge.net/DTD/sodipodi-0.dtd"
   xmlns="http://www.w3.org/2000/svg"
   xmlns:svg="http://www.w3.org/2000/svg"><sodipodi:namedview
     id="namedview7"
     pagecolor="#ffffff"
     bordercolor="#000000"
     borderopacity="0.25"
     inkscape:showpageshadow="2"
     inkscape:pageopacity="0.0"
     inkscape:pagecheckerboard="true"
     inkscape:deskcolor="#d1d1d1"
     inkscape:document-units="mm"
     showgrid="true"
     showguides="true"
     showborder="false"
     shape-rendering="auto"
     inkscape:zoom="15.999999"
     inkscape:cx="20.312501"
     inkscape:cy="25.843752"
     inkscape:window-width="1920"
     inkscape:window-height="997"
     inkscape:window-x="0"
     inkscape:window-y="0"
     inkscape:window-maximized="1"
     inkscape:current-layer="svg5"><inkscape:grid
       type="xygrid"
       id="grid175"
       empspacing="5"
       units="px"
       spacingx="0.26458332"
       spacingy="0.26458332"
       dotted="false"
       originx="0"
       originy="0" /></sodipodi:namedview><defs
     id="defs2" /><g
     inkscape:label="Layer 1"
     inkscape:groupmode="layer"
     id="layer1" /><path
     id="path1039"
     style="fill:#000000;stroke:none;stroke-width:0.264583;stroke-linecap:round;stroke-linejoin:round;stroke-dasharray:none;paint-order:stroke fill markers"
     d="m 9.0893677,4.139799 a 3.9687498,3.9687498 0 0 1 0.171049,1.1518677 3.9687498,3.9687498 0 0 1 -3.96875,3.96875 A 3.9687498,3.9687498 0 0 1 4.1403158,9.0888509 3.9687498,3.9687498 0 0 0 7.9375,11.90625 3.9687498,3.9687498 0 0 0 11.90625,7.9375 3.9687498,3.9687498 0 0 0 9.0893677,4.139799 Z" /><path
     id="path1037-3"
     style="fill:#000000;stroke:none;stroke-width:0.264583;stroke-linecap:round;stroke-linejoin:round;stroke-dasharray:none;paint-order:stroke fill markers"
     d="m 5.2916667,1.3229167 a 3.9687498,3.9687498 0 0 0 -3.96875,3.96875 3.9687498,3.9687498 0 0 0 2.8194661,3.7951172 L 9.0893677,4.139799 A 3.9687498,3.9687498 0 0 0 5.2916667,1.3229167 Z" /><path
     style="fill:#000000;stroke:#000000;stroke-width:0.26458333;stroke-linecap:square;stroke-linejoin:miter;stroke-dasharray:none;paint-order:normal;stroke-miterlimit:4"
     d="M 1.3229166,11.906249 11.906249,1.3229166"
     id="path1137" /><path
     sodipodi:type="star"
     style="fill:#000000;stroke:none;stroke-width:0.264583;stroke-linecap:round;stroke-linejoin:round;stroke-dasharray:none;paint-order:stroke fill markers"
     id="path1149"
     inkscape:flatsided="false"
     sodipodi:sides="4"
     sodipodi:cx="7.4083328"
     sodipodi:cy="7.4083328"
     sodipodi:r1="0.79374993"
     sodipodi:r2="0.37417731"
     sodipodi:arg1="-1.5707963"
     sodipodi:arg2="-0.78539765"
     inkscape:rounded="0"
     inkscape:randomized="0"
     d="M 7.4083328,6.6145829 7.6729163,7.1437496 8.2020828,7.4083328 7.672916,7.6729163 7.4083328,8.2020828 7.1437494,7.672916 6.6145829,7.4083328 7.1437496,7.1437494 Z" /><path
     sodipodi:type="star"
     style="fill:#000000;stroke:none;stroke-width:0.264583;stroke-linecap:round;stroke-linejoin:round;stroke-dasharray:none;paint-order:stroke fill markers"
     id="path1235"
     inkscape:flatsided="false"
     sodipodi:sides="4"
     sodipodi:cx="11.377083"
     sodipodi:cy="3.4395833"
     sodipodi:r1="0.74835467"
     sodipodi:r2="0.26458326"
     sodipodi:arg1="-0.78539816"
     sodipodi:arg2="-5.3497032e-07"
     inkscape:rounded="0"
     inkscape:randomized="0"
     d="M 11.906249,2.9104166 11.641666,3.4395832 11.906249,3.96875 11.377083,3.7041666 10.847916,3.96875 11.1125,3.4395834 10.847916,2.9104166 11.377083,3.175 Z" /><path
     sodipodi:type="star"
     style="fill:#000000;stroke:none;stroke-width:0.264583;stroke-linecap:round;stroke-linejoin:round;stroke-dasharray:none;paint-order:stroke fill markers"
     id="path1235-7"
     inkscape:flatsided="false"
     sodipodi:sides="4"
     sodipodi:cx="11.377083"
     sodipodi:cy="3.4395833"
     sodipodi:r1="0.74835467"
     sodipodi:r2="0.26458326"
     sodipodi:arg1="-0.78539816"
     sodipodi:arg2="-5.3497032e-07"
     inkscape:rounded="0"
     inkscape:randomized="0"
     d="M 11.906249,2.9104166 11.641666,3.4395832 11.906249,3.96875 11.377083,3.7041666 10.847916,3.96875 11.1125,3.4395834 10.847916,2.9104166 11.377083,3.175 Z"
     transform="translate(-7.1437497,7.9374995)" /></svg>
