<?xml version="1.0" encoding="UTF-8" standalone="no"?>
<!-- Creator: CorelDRAW 2020 (64-Bit) -->

<svg
   xml:space="preserve"
   width="300.288mm"
   height="200.524mm"
   version="1.1"
   style="shape-rendering:geometricPrecision; text-rendering:geometricPrecision; image-rendering:optimizeQuality; fill-rule:evenodd; clip-rule:evenodd"
   viewBox="0 0 8761.65 5850.76"
   id="svg3"
   sodipodi:docname="favicon.svg"
   inkscape:version="1.4.3 (0d15f75, 2025-12-25)"
   xmlns:inkscape="http://www.inkscape.org/namespaces/inkscape"
   xmlns:sodipodi="http://sodipodi.sourceforge.net/DTD/sodipodi-0.dtd"
   xmlns="http://www.w3.org/2000/svg"
   xmlns:svg="http://www.w3.org/2000/svg"><sodipodi:namedview
   id="namedview3"
   pagecolor="#ffffff"
   bordercolor="#000000"
   borderopacity="0.25"
   inkscape:showpageshadow="2"
   inkscape:pageopacity="0.0"
   inkscape:pagecheckerboard="0"
   inkscape:deskcolor="#d1d1d1"
   inkscape:document-units="mm"
   inkscape:zoom="0.49545711"
   inkscape:cx="606.51063"
   inkscape:cy="305.77824"
   inkscape:window-width="1920"
   inkscape:window-height="991"
   inkscape:window-x="-9"
   inkscape:window-y="-9"
   inkscape:window-maximized="1"
   inkscape:current-layer="Layer_x0020_1" />
 <defs
   id="defs1">
  <style
   type="text/css"
   id="style1">
   <![CDATA[
    .str0 {stroke:black;stroke-width:5.84;stroke-miterlimit:22.9256}
    .str1 {stroke:white;stroke-width:2.22;stroke-miterlimit:22.9256}
    .fil1 {fill:none;fill-rule:nonzero}
    .fil0 {fill:#606020;fill-rule:nonzero}
    .fil2 {fill:white;fill-rule:nonzero}
   ]]>
  </style>
 
   
   
  
    
    
   
    
    
   </defs>
 <g
   id="Layer_x0020_1"
   inkscape:label="Layer 1">
  <metadata
   id="CorelCorpID_0Corel-Layer" />
  <path
   class="fil0"
   d="M 2338.4,5838.4 H 4.21 L 879.53,3504.2 4.21,1170.01 h 1750.64 z m 0,-1167.1 V 5838.4 L 1754.85,4671.3 Z M 7006.79,1170 h 1750.65 l -875.32,2334.19 875.32,2334.2 H 6423.25 L 7006.8,1170 Z m 0,3501.3 -583.55,1167.1 V 4671.3 Z M 1754.85,2.91 H 7006.79 V 4671.3 H 1754.85 Z"
   id="path1"
   style="fill:#1f1f1f" /><path
   id="1"
   class="fil1 str0"
   d="M 2338.4,5838.4 H 4.21 L 879.53,3504.2 4.21,1170.01 h 1750.64 m 583.55,3501.3 v 1167.1 L 1754.85,4671.31 M 7006.79,1170.01 H 8757.44 L 7882.12,3504.2 8757.44,5838.4 H 6423.25 M 7006.8,4671.3 6423.25,5838.4 V 4671.3 M 1754.86,2.91 H 7006.8 V 4671.3 H 1754.86 Z"
   style="fill:#1f1f1f;stroke:#808080" /><g
   id="g3"
   style="fill:#ffffff;stroke:#808080"><path
     id="path2"
     style="fill:#ffffff;stroke:#808080"
     class="fil2 str1"
     d="m 2430.27,2019.16 c -10.98,0 -20.58,-2.4 -28.82,-7.21 -8.23,-4.8 -12.35,-12.01 -12.35,-21.61 0,-21.96 14.41,-36.37 43.23,-43.23 52.15,-10.98 87.83,-25.05 107.05,-42.2 19.21,-17.15 28.82,-48.38 28.82,-93.67 V 888.97 c 0,-46.66 -8.23,-80.63 -24.7,-101.9 -16.47,-21.27 -49.41,-37.4 -98.82,-48.38 -17.84,-4.12 -30.19,-9.95 -37.06,-17.5 -6.86,-7.55 -10.29,-16.13 -10.29,-25.73 0,-8.23 4.12,-15.44 12.35,-21.61 8.23,-6.18 19.21,-9.26 32.94,-9.26 32.94,0 67.25,0.69 102.93,2.06 35.68,1.37 70.68,3.09 104.99,5.15 34.31,2.06 67.25,3.09 98.81,3.09 53.53,0 112.2,0 176.01,0 63.82,0 125.24,0 184.25,0 56.27,0 107.39,-3.78 153.37,-11.32 45.97,-7.55 83.37,-11.32 112.19,-11.32 10.98,0 21.96,2.75 32.94,8.24 10.98,5.49 17.16,15.78 18.53,30.88 2.75,31.57 4.81,64.5 6.18,98.82 1.37,34.31 2.4,67.25 3.09,98.81 0.69,31.57 1.03,58.33 1.03,80.29 0,27.45 -8.23,41.17 -24.7,41.17 -6.86,0 -14.75,-2.75 -23.67,-8.23 -8.92,-5.49 -14.75,-13.73 -17.5,-24.7 -9.61,-34.31 -19.9,-64.85 -30.88,-91.61 -10.98,-26.76 -25.39,-49.06 -43.23,-66.9 -17.84,-19.22 -38.77,-32.94 -62.79,-41.18 -24.02,-8.23 -52.5,-12.35 -85.43,-12.35 h -154.4 c -34.31,0 -61.07,8.58 -80.28,25.73 -19.21,17.15 -28.82,40.14 -28.82,68.96 0,24.7 0,53.52 0,86.46 0,32.94 0,62.45 0,88.52 0,30.19 0,63.13 0,98.82 0,35.68 0,68.62 0,98.81 0,17.84 4.12,30.54 12.35,38.09 8.24,7.55 19.9,11.32 35,11.32 34.31,0 68.62,0 102.93,0 34.31,0 66.56,0 96.76,0 35.68,0 61.76,-10.64 78.23,-31.91 16.47,-21.27 30.88,-46.32 43.23,-75.14 5.49,-10.98 12.01,-19.9 19.55,-26.76 7.55,-6.86 14.76,-10.29 21.62,-10.29 6.86,0 13.38,4.12 19.55,12.35 6.18,8.23 8.58,19.21 7.21,32.94 -2.75,28.82 -5.15,55.93 -7.21,81.31 -2.06,25.39 -3.09,47.69 -3.09,66.91 0,26.08 0.69,48.38 2.06,66.91 1.37,18.53 3.43,43.57 6.17,75.14 1.37,17.84 0,31.22 -4.12,40.15 -4.12,8.92 -9.61,13.38 -16.47,13.38 -10.98,0 -20.93,-5.15 -29.85,-15.44 -8.92,-10.29 -15.44,-21.61 -19.56,-33.97 -10.98,-41.17 -24.7,-68.96 -41.17,-83.37 -16.47,-14.41 -37.06,-21.61 -61.76,-21.61 -15.1,0 -31.22,0 -48.38,0 -17.16,0 -33.28,0 -48.38,0 -19.21,0 -39.46,0 -60.73,0 -21.27,0 -41.52,0.69 -60.73,2.06 -15.1,0 -26.42,4.12 -33.97,12.35 -7.55,8.23 -11.32,19.9 -11.32,35 0,61.76 0.34,126.27 1.03,193.51 0.69,67.25 1.72,131.75 3.09,193.51 0,43.92 11.67,74.8 35,92.64 23.33,17.84 63.82,32.94 121.46,45.29 13.73,2.75 24.36,7.21 31.91,13.38 7.55,6.18 11.32,15.44 11.32,27.79 0,9.61 -3.09,17.16 -9.26,22.64 -6.17,5.49 -15.44,8.24 -27.79,8.24 -30.19,0 -65.19,-1.03 -104.99,-3.09 -39.8,-2.06 -78.91,-3.77 -117.34,-5.15 -38.43,-1.37 -71.37,-2.06 -98.81,-2.06 -27.45,0 -58.33,0.69 -92.64,2.06 -34.31,1.37 -69.31,3.09 -104.99,5.15 -35.68,2.06 -69.31,3.09 -100.87,3.09 z m 1121.96,0 c -8.24,0 -15.78,-2.4 -22.65,-7.21 -6.86,-4.8 -10.29,-11.32 -10.29,-19.56 0,-10.98 3.43,-19.9 10.29,-26.76 6.86,-6.86 15.78,-11.67 26.76,-14.41 35.68,-8.23 60.73,-17.5 75.14,-27.79 14.41,-10.29 21.62,-26.42 21.62,-48.38 v -444.66 c 0,-46.66 -7.21,-79.94 -21.62,-99.85 -14.41,-19.9 -36.71,-31.91 -66.9,-36.03 -8.23,-1.37 -14.41,-5.49 -18.53,-12.35 -4.12,-6.86 -6.18,-15.1 -6.18,-24.7 0,-20.59 7.55,-32.25 22.64,-35 71.37,-13.72 134.84,-32.94 190.42,-57.64 55.58,-24.7 98.47,-43.92 128.67,-57.64 21.96,-10.98 35.68,-16.47 41.17,-16.47 17.84,0 26.76,8.23 26.76,24.7 -1.37,23.33 -4.46,52.49 -9.26,87.49 -4.8,35 -8.92,71.02 -12.35,108.08 -3.43,37.06 -5.15,72.74 -5.15,107.05 v 454.96 c 0,19.21 7.2,34.31 21.61,45.29 14.41,10.98 40.14,21.96 77.2,32.94 10.98,4.12 19.9,8.92 26.76,14.41 6.86,5.49 10.29,13.73 10.29,24.7 0,17.84 -10.29,26.76 -30.88,26.76 -26.08,0 -53.52,-0.69 -82.34,-2.06 -28.82,-1.37 -56.61,-2.75 -83.37,-4.12 -26.76,-1.37 -52.5,-2.06 -77.2,-2.06 -23.33,0 -47.69,0.69 -73.08,2.06 -25.39,1.37 -51.47,3.09 -78.23,5.15 -26.76,2.06 -53.87,3.09 -81.31,3.09 z M 3778.68,998.08 c -42.55,0 -79.94,-15.78 -112.2,-47.35 -32.25,-31.56 -48.38,-69.31 -48.38,-113.22 0,-46.66 16.13,-85.78 48.38,-117.34 32.25,-31.57 69.65,-47.35 112.2,-47.35 48.03,0 87.83,15.78 119.4,47.35 31.57,31.56 47.35,70.68 47.35,117.34 0,43.91 -15.78,81.66 -47.35,113.22 -31.57,31.57 -71.37,47.35 -119.4,47.35 z m 378.79,1021.08 c -12.35,0 -22.3,-2.4 -29.85,-7.21 -7.55,-4.8 -11.32,-12.01 -11.32,-21.61 0,-10.98 4.12,-19.56 12.35,-25.73 8.23,-6.17 19.9,-11.32 35,-15.44 20.58,-6.86 38.77,-14.41 54.55,-22.64 15.78,-8.24 23.67,-26.76 23.67,-55.58 v -990.2 c 0,-37.06 -5.15,-69.31 -15.44,-96.76 -10.29,-27.45 -32.59,-44.6 -66.9,-51.47 -13.73,-2.75 -20.59,-13.04 -20.59,-30.88 0,-17.84 6.18,-28.14 18.53,-30.88 35.68,-6.86 74.11,-16.81 115.28,-29.85 41.17,-13.04 80.29,-26.76 117.34,-41.17 37.06,-14.41 65.88,-25.05 86.46,-31.91 10.98,-4.12 19.9,-6.18 26.76,-6.18 8.24,0 13.73,2.4 16.47,7.2 2.75,4.81 4.12,10.64 4.12,17.5 0,9.61 -1.72,27.45 -5.15,53.52 -3.43,26.08 -5.83,55.58 -7.2,88.52 v 1138.42 c 0,30.19 7.89,49.06 23.67,56.61 15.78,7.55 33.97,14.76 54.55,21.62 15.1,5.49 26.76,10.98 35,16.47 8.23,5.49 12.35,13.73 12.35,24.7 0,9.61 -3.78,16.81 -11.32,21.61 -7.55,4.8 -17.5,7.21 -29.85,7.21 -26.08,0 -51.81,-0.69 -77.2,-2.06 -25.39,-1.37 -50.09,-2.4 -74.11,-3.09 -24.02,-0.69 -48.38,-1.03 -73.08,-1.03 -23.33,0 -46.32,0.69 -68.96,2.06 -22.64,1.37 -45.63,3.09 -68.96,5.15 -23.33,2.06 -48.72,3.09 -76.17,3.09 z m 588.77,0 c -8.24,0 -15.78,-2.4 -22.65,-7.21 -6.86,-4.8 -10.29,-11.32 -10.29,-19.56 0,-10.98 3.43,-19.9 10.29,-26.76 6.86,-6.86 15.78,-11.67 26.76,-14.41 35.68,-8.23 60.73,-17.5 75.14,-27.79 14.41,-10.29 21.62,-26.42 21.62,-48.38 v -444.66 c 0,-46.66 -7.21,-79.94 -21.62,-99.85 -14.41,-19.9 -36.71,-31.91 -66.9,-36.03 -8.23,-1.37 -14.41,-5.49 -18.53,-12.35 -4.12,-6.86 -6.18,-15.1 -6.18,-24.7 0,-20.59 7.55,-32.25 22.64,-35 71.37,-13.72 134.84,-32.94 190.42,-57.64 55.58,-24.7 98.47,-43.92 128.67,-57.64 21.96,-10.98 35.68,-16.47 41.17,-16.47 17.84,0 26.76,8.23 26.76,24.7 -1.37,23.33 -4.46,52.49 -9.26,87.49 -4.8,35 -8.92,71.02 -12.35,108.08 -3.43,37.06 -5.15,72.74 -5.15,107.05 v 454.96 c 0,19.21 7.2,34.31 21.61,45.29 14.41,10.98 40.14,21.96 77.2,32.94 10.98,4.12 19.9,8.92 26.76,14.41 6.86,5.49 10.29,13.73 10.29,24.7 0,17.84 -10.29,26.76 -30.88,26.76 -26.08,0 -53.52,-0.69 -82.34,-2.06 -28.82,-1.37 -56.61,-2.75 -83.37,-4.12 -26.76,-1.37 -52.5,-2.06 -77.2,-2.06 -23.33,0 -47.69,0.69 -73.08,2.06 -25.39,1.37 -51.47,3.09 -78.23,5.15 -26.76,2.06 -53.87,3.09 -81.31,3.09 z M 4972.69,998.08 c -42.55,0 -79.94,-15.78 -112.2,-47.35 -32.25,-31.56 -48.38,-69.31 -48.38,-113.22 0,-46.66 16.13,-85.78 48.38,-117.34 32.25,-31.57 69.65,-47.35 112.2,-47.35 48.03,0 87.83,15.78 119.4,47.35 31.57,31.56 47.35,70.68 47.35,117.34 0,43.91 -15.78,81.66 -47.35,113.22 -31.57,31.57 -71.37,47.35 -119.4,47.35 z m 378.79,1554.27 c -9.61,0 -18.87,-2.4 -27.79,-7.21 -8.92,-4.8 -13.38,-12.01 -13.38,-21.61 0,-10.98 4.46,-19.56 13.38,-25.73 8.92,-6.17 20.24,-11.32 33.97,-15.44 28.82,-9.61 49.06,-19.56 60.73,-29.85 11.67,-10.29 17.5,-26.42 17.5,-48.38 v -986.09 c 0,-17.84 -3.43,-35 -10.29,-51.47 -6.86,-16.47 -16.47,-31.22 -28.82,-44.26 -12.35,-13.04 -28.13,-20.93 -47.35,-23.67 -8.23,-2.75 -14.41,-6.52 -18.53,-11.32 -4.12,-4.81 -6.17,-13.38 -6.17,-25.73 0,-10.98 2.06,-19.21 6.17,-24.7 4.12,-5.49 9.61,-8.92 16.47,-10.29 48.03,-10.98 99.5,-25.39 154.4,-43.23 54.89,-17.84 102.24,-36.37 142.04,-55.58 5.49,-2.75 11.32,-5.83 17.5,-9.26 6.18,-3.43 12.01,-5.15 17.5,-5.15 8.24,0 13.38,2.4 15.44,7.2 2.06,4.81 3.09,10.64 3.09,17.5 0,10.98 -1.72,29.16 -5.14,54.55 -3.43,25.39 -5.15,47 -5.15,64.85 0,13.73 1.37,21.96 4.12,24.7 13.72,-13.73 38.09,-32.25 73.08,-55.58 35,-23.33 75.14,-43.92 120.43,-61.76 45.29,-17.84 89.21,-26.76 131.75,-26.76 74.11,0 136.9,19.55 188.36,58.67 51.47,39.12 90.92,89.21 118.37,150.28 27.45,61.07 41.18,125.23 41.18,192.48 0,64.51 -12.01,126.95 -36.03,187.34 -24.02,60.39 -57.98,114.94 -101.9,163.66 -43.92,48.72 -94.7,87.49 -152.34,116.31 -57.64,28.82 -119.4,43.23 -185.28,43.23 -15.1,0 -33.28,-2.06 -54.55,-6.18 -21.27,-4.12 -42.55,-9.61 -63.82,-16.47 -21.27,-6.86 -40.83,-13.73 -58.67,-20.59 -1.37,0 -2.74,2.06 -4.12,6.18 -1.37,4.12 -2.4,8.92 -3.09,14.41 -0.69,5.49 -1.03,10.98 -1.03,16.47 v 341.73 c 0,17.84 4.46,32.94 13.38,45.29 8.92,12.35 21.62,22.3 38.09,29.85 16.47,7.55 36.37,14.76 59.7,21.62 13.73,4.12 24.7,9.26 32.94,15.44 8.23,6.18 12.35,14.76 12.35,25.73 0,8.23 -3.77,15.1 -11.32,20.58 -7.55,5.49 -15.44,8.24 -23.67,8.24 -41.17,0 -84.06,-1.72 -128.66,-5.15 -44.6,-3.43 -84.75,-5.15 -120.43,-5.15 -23.33,0 -47.01,0.69 -71.02,2.06 -24.02,1.37 -48.72,3.09 -74.11,5.15 -25.39,2.06 -51.81,3.09 -79.26,3.09 z m 531.13,-597.01 c 15.1,0 33.28,-5.83 54.56,-17.5 21.27,-11.67 42.54,-30.54 63.82,-56.61 21.27,-26.08 39.12,-61.07 53.52,-104.99 14.41,-43.92 21.62,-98.13 21.62,-162.63 0,-75.48 -7.55,-135.53 -22.64,-180.13 -15.1,-44.6 -33.62,-77.89 -55.58,-99.84 -21.96,-21.96 -44.26,-36.71 -66.91,-44.26 -22.64,-7.55 -42.2,-11.32 -58.67,-11.32 -24.7,0 -50.09,5.49 -76.17,16.47 -26.08,10.98 -47.35,24.02 -63.82,39.12 -16.47,15.1 -24.7,28.82 -24.7,41.17 0,10.98 0,32.25 0,63.82 0,31.56 -0.34,66.56 -1.03,104.99 -0.69,38.43 -1.37,73.43 -2.06,104.99 -0.69,31.56 -1.03,53.52 -1.03,65.87 0,31.57 7.21,66.22 21.61,103.96 14.41,37.74 35,69.99 61.76,96.76 26.76,26.76 58.67,40.14 95.73,40.14 z m -3792,2140.77 c -13.73,0 -26.76,-3.43 -39.12,-10.29 -12.35,-6.86 -18.53,-15.1 -18.53,-24.7 0,-21.96 17.84,-36.37 53.52,-43.23 52.15,-10.98 86.46,-25.39 102.93,-43.23 16.47,-17.84 24.7,-48.72 24.7,-92.64 v -932.56 c 0,-45.29 -9.26,-76.86 -27.79,-94.7 -18.53,-17.84 -55.24,-32.94 -110.14,-45.29 -28.82,-6.86 -43.23,-21.27 -43.23,-43.23 0,-9.61 4.46,-17.15 13.38,-22.64 8.92,-5.49 18.19,-8.23 27.79,-8.23 31.57,0 64.85,0.69 99.85,2.06 35,1.37 69.31,3.09 102.93,5.15 33.62,2.06 64.16,3.09 91.61,3.09 27.45,0 58.33,-0.69 92.64,-2.06 34.31,-1.37 69.65,-2.75 106.02,-4.12 36.37,-1.37 69.65,-2.06 99.84,-2.06 10.98,0 19.9,2.4 26.76,7.21 6.86,4.8 10.29,12.01 10.29,21.61 0,13.73 -3.77,23.33 -11.32,28.82 -7.55,5.49 -18.87,10.29 -33.97,14.41 -54.9,15.1 -90.24,32.25 -106.02,51.47 -15.78,19.21 -23.67,49.41 -23.67,90.58 v 417.9 c 0,10.98 2.06,19.21 6.18,24.7 4.12,5.49 8.92,8.23 14.41,8.23 6.86,0 14.41,-3.09 22.64,-9.26 8.23,-6.18 17.84,-14.07 28.82,-23.67 l 395.26,-426.14 c 10.98,-12.35 20.24,-23.67 27.79,-33.97 7.55,-10.29 11.32,-20.24 11.32,-29.85 0,-28.82 -28.14,-49.41 -84.4,-61.76 -15.1,-4.12 -26.42,-9.61 -33.97,-16.47 -7.55,-6.86 -11.32,-16.47 -11.32,-28.82 0,-9.61 4.46,-16.81 13.38,-21.62 8.92,-4.8 18.18,-7.2 27.79,-7.2 h 142.04 c 46.66,0 91.95,-0.34 135.87,-1.03 43.92,-0.69 88.52,-1.72 133.81,-3.09 45.29,-1.37 91.27,-2.06 137.93,-2.06 13.73,0 26.08,2.4 37.06,7.21 10.98,4.8 16.47,12.01 16.47,21.61 0,13.73 -6.86,23.67 -20.59,29.85 -13.72,6.17 -27.45,10.64 -41.17,13.38 -68.62,9.61 -128.66,25.39 -180.13,47.35 -51.47,21.96 -97.1,48.72 -136.9,80.28 -41.17,31.57 -80.97,65.54 -119.4,101.9 -38.43,36.37 -76.86,74.11 -115.28,113.23 -38.43,39.11 -78.91,78.57 -121.46,118.37 -19.21,17.84 -18.53,38.43 2.06,61.76 l 492.01,551.71 c 19.21,20.59 38.09,39.12 56.61,55.58 18.53,16.47 40.14,30.88 64.85,43.23 24.7,12.35 54.89,24.02 90.58,35 15.1,4.12 29.51,8.92 43.23,14.41 13.72,5.49 20.58,14.41 20.58,26.76 0,9.61 -6.86,17.84 -20.58,24.7 -13.73,6.86 -32.94,10.29 -57.64,10.29 -41.17,0 -82,-1.37 -122.49,-4.12 -40.49,-2.75 -80.63,-5.15 -120.43,-7.21 -39.8,-2.06 -81.66,-3.09 -125.57,-3.09 -45.29,0 -87.49,1.72 -126.61,5.15 -39.12,3.43 -82.69,5.15 -130.72,5.15 -9.61,0 -18.87,-2.75 -27.79,-8.24 -8.92,-5.49 -13.38,-13.04 -13.38,-22.64 0,-21.96 13.73,-36.37 41.17,-43.23 54.9,-10.98 83.72,-29.51 86.46,-55.58 0,-10.98 -3.09,-21.62 -9.26,-31.91 -6.17,-10.29 -14.75,-22.3 -25.73,-36.03 l -335.56,-389.08 c -9.61,-10.98 -18.53,-19.21 -26.76,-24.7 -8.23,-5.49 -15.78,-8.24 -22.64,-8.24 -5.49,0 -9.95,3.09 -13.38,9.26 -3.43,6.18 -5.15,14.76 -5.15,25.73 0,61.76 0.34,122.83 1.03,183.22 0.69,60.39 2.4,123.52 5.15,189.39 1.37,24.7 4.8,45.98 10.29,63.82 5.49,17.84 16.13,32.25 31.91,43.23 15.78,10.98 41.51,21.96 77.2,32.94 15.1,4.12 28.14,8.92 39.11,14.41 10.98,5.49 16.47,14.41 16.47,26.76 0,9.61 -6.18,17.5 -18.53,23.67 -12.35,6.18 -26.08,9.26 -41.17,9.26 -42.55,0 -79.6,-1.37 -111.17,-4.12 -31.57,-2.75 -60.39,-5.49 -86.46,-8.23 -26.08,-2.75 -52.15,-4.12 -78.23,-4.12 -28.82,0 -56.27,1.72 -82.34,5.15 -26.08,3.43 -54.55,6.86 -85.43,10.29 -30.88,3.43 -69.65,5.15 -116.31,5.15 z m 1741.6,16.47 c -37.06,0 -71.37,-8.92 -102.93,-26.76 -31.57,-17.84 -56.61,-41.18 -75.14,-69.99 -18.53,-28.82 -27.79,-60.39 -27.79,-94.7 0,-46.66 14.76,-85.78 44.26,-117.34 29.51,-31.56 73.08,-59.7 130.72,-84.4 l 183.22,-80.29 c 27.45,-12.35 44.26,-23.33 50.44,-32.94 6.18,-9.61 9.26,-27.45 9.26,-53.52 l 2.06,-117.34 c 1.37,-38.43 -5.49,-68.96 -20.59,-91.61 -15.1,-22.65 -37.74,-33.97 -67.93,-33.97 -17.84,0 -35.68,3.77 -53.53,11.32 -17.84,7.55 -31.56,16.13 -41.17,25.73 -4.12,5.49 -7.2,12.01 -9.26,19.56 -2.06,7.55 -3.09,15.44 -3.09,23.67 0,8.23 0.69,18.18 2.06,29.85 1.37,11.67 2.06,21.62 2.06,29.85 0,8.23 -10.98,18.87 -32.94,31.91 -21.96,13.04 -47.35,24.7 -76.17,35 -28.82,10.29 -53.52,15.44 -74.11,15.44 -9.61,0 -18.18,-4.12 -25.73,-12.35 -7.55,-8.24 -11.32,-18.53 -11.32,-30.88 0,-21.96 7.55,-43.57 22.64,-64.85 15.1,-21.27 39.8,-45.63 74.11,-73.08 35.68,-30.19 74.8,-56.95 117.34,-80.29 42.55,-23.33 84.75,-41.86 126.61,-55.58 41.86,-13.72 77.2,-20.58 106.02,-20.58 74.11,0 133.12,23.67 177.04,71.02 43.92,47.35 64.5,110.14 61.76,188.37 l -10.29,415.84 c -1.37,31.57 4.12,58.33 16.47,80.29 12.35,21.96 27.45,32.94 45.29,32.94 26.08,0 48.72,-8.92 67.94,-26.76 4.12,-4.12 8.23,-6.18 12.35,-6.18 6.86,0 12.7,2.06 17.5,6.18 4.81,4.12 7.21,9.61 7.21,16.47 0,16.47 -12.35,37.74 -37.06,63.82 -26.08,24.7 -53.53,43.57 -82.34,56.61 -28.82,13.04 -59.01,19.56 -90.58,19.56 -76.86,0 -140.67,-39.12 -191.45,-117.34 h -4.12 c -45.29,41.17 -86.12,71.02 -122.49,89.55 -36.37,18.53 -75.14,27.79 -116.31,27.79 z m 123.52,-133.81 c 15.1,0 27.45,-2.4 37.06,-7.21 9.61,-4.8 19.21,-12.7 28.82,-23.67 4.12,-5.49 7.55,-12.7 10.29,-21.61 2.74,-8.92 4.12,-19.56 4.12,-31.91 l 6.17,-148.22 c 0,-13.73 -2.06,-22.64 -6.17,-26.76 -4.12,-4.12 -8.92,-6.18 -14.41,-6.18 -2.75,0 -6.18,0.69 -10.29,2.06 -4.12,1.37 -8.92,3.43 -14.41,6.18 -39.8,19.21 -69.31,38.77 -88.52,58.67 -19.21,19.9 -28.82,51.81 -28.82,95.73 0,39.8 8.23,66.9 24.7,81.31 16.47,14.41 33.62,21.62 51.47,21.62 z m 946.97,133.81 c -72.74,0 -138.27,-19.56 -196.6,-58.67 -58.33,-39.11 -104.3,-91.95 -137.93,-158.51 -33.62,-66.56 -50.44,-141.7 -50.44,-225.42 0,-89.21 20.59,-169.49 61.76,-240.86 41.17,-71.37 96.41,-128.32 165.72,-170.87 69.31,-42.54 146.51,-63.82 231.6,-63.82 112.54,0 205.86,37.06 279.97,111.17 12.35,13.73 18.53,26.08 18.53,37.06 0,8.23 -6.18,20.24 -18.53,36.03 -12.35,15.78 -26.08,29.85 -41.17,42.2 -15.1,12.35 -28.14,18.53 -39.12,18.53 -12.35,0 -24.36,-3.78 -36.03,-11.32 -11.67,-7.55 -22.99,-16.12 -33.97,-25.73 -35.68,-30.19 -71.71,-54.55 -108.08,-73.08 -36.37,-18.53 -67.59,-27.79 -93.67,-27.79 -52.15,0 -91.61,21.61 -118.37,64.85 -26.76,43.23 -40.14,113.57 -40.14,211.01 0,67.25 10.64,125.24 31.91,173.96 21.27,48.72 51.81,86.12 91.61,112.2 39.8,26.08 87.84,39.11 144.1,39.11 41.17,0 76.86,-6.52 107.05,-19.56 30.19,-13.04 61.76,-33.28 94.7,-60.73 6.86,-4.12 12.7,-8.23 17.5,-12.35 4.8,-4.12 10.64,-6.18 17.5,-6.18 16.47,0 24.7,10.98 24.7,32.94 0,5.49 -1.03,13.38 -3.09,23.67 -2.06,10.29 -6.52,21.62 -13.38,33.97 -12.35,27.45 -36.03,58.33 -71.02,92.64 -35,34.31 -76.51,63.82 -124.55,88.52 -48.03,24.7 -101.56,37.06 -160.58,37.06 z m 41.17,-965.5 c -12.35,0 -23.67,-6.52 -33.97,-19.56 -10.29,-13.04 -23.67,-33.28 -40.15,-60.73 -12.35,-21.96 -26.08,-44.94 -41.17,-68.96 -15.1,-24.02 -30.19,-48.72 -45.29,-74.11 -15.1,-25.39 -29.16,-50.09 -42.2,-74.11 -13.04,-24.02 -25.05,-46.32 -36.03,-66.9 -10.98,-21.96 -15.1,-40.83 -12.35,-56.61 2.74,-15.78 13.72,-23.67 32.94,-23.67 10.98,0 23.33,5.83 37.06,17.5 13.72,11.67 29.5,27.79 47.35,48.38 15.1,16.47 32.94,37.06 53.53,61.76 20.58,24.7 43.23,50.78 67.93,78.23 6.86,4.12 11.32,6.17 13.38,6.17 2.06,0 5.15,-2.06 9.26,-6.17 26.08,-27.45 49.75,-53.53 71.02,-78.23 21.27,-24.7 38.77,-45.29 52.5,-61.76 17.84,-20.59 33.97,-36.71 48.38,-48.38 14.41,-11.67 25.73,-17.5 33.97,-17.5 13.73,0 23.33,7.55 28.82,22.64 5.49,15.1 2.74,34.31 -8.24,57.64 -9.61,20.58 -21.27,43.23 -35,67.93 -13.73,24.7 -28.14,49.41 -43.23,74.11 -15.1,24.7 -30.19,49.75 -45.29,75.14 -15.1,25.39 -28.82,49.06 -41.17,71.02 -13.73,23.33 -25.73,41.86 -36.03,55.58 -10.29,13.73 -22.3,20.59 -36.03,20.59 z m 446.73,942.85 c -8.24,0 -15.78,-2.4 -22.65,-7.21 -6.86,-4.8 -10.29,-11.32 -10.29,-19.56 0,-10.98 3.43,-19.9 10.29,-26.76 6.86,-6.86 15.78,-11.67 26.76,-14.41 35.68,-8.23 60.73,-17.5 75.14,-27.79 14.41,-10.29 21.62,-26.42 21.62,-48.38 v -444.66 c 0,-46.66 -7.21,-79.94 -21.62,-99.85 -14.41,-19.9 -36.71,-31.91 -66.9,-36.03 -8.23,-1.37 -14.41,-5.49 -18.53,-12.35 -4.12,-6.86 -6.18,-15.1 -6.18,-24.7 0,-20.59 7.55,-32.25 22.64,-35 71.37,-13.72 134.84,-32.94 190.42,-57.64 55.58,-24.7 98.47,-43.92 128.67,-57.64 21.96,-10.98 35.68,-16.47 41.17,-16.47 17.84,0 26.76,8.23 26.76,24.7 -1.37,23.33 -4.46,52.49 -9.26,87.49 -4.8,35 -8.92,71.02 -12.35,108.08 -3.43,37.06 -5.15,72.74 -5.15,107.05 v 454.96 c 0,19.21 7.2,34.31 21.61,45.29 14.41,10.98 40.14,21.96 77.2,32.94 10.98,4.12 19.9,8.92 26.76,14.41 6.86,5.49 10.29,13.73 10.29,24.7 0,17.84 -10.29,26.76 -30.88,26.76 -26.08,0 -53.52,-0.69 -82.34,-2.06 -28.82,-1.37 -56.61,-2.75 -83.37,-4.12 -26.76,-1.37 -52.5,-2.06 -77.2,-2.06 -23.33,0 -47.69,0.69 -73.08,2.06 -25.39,1.37 -51.47,3.09 -78.23,5.15 -26.76,2.06 -53.87,3.09 -81.31,3.09 z m 226.45,-1021.08 c -42.55,0 -79.94,-15.78 -112.2,-47.35 -32.25,-31.56 -48.38,-69.31 -48.38,-113.22 0,-46.66 16.13,-85.78 48.38,-117.34 32.25,-31.57 69.65,-47.35 112.2,-47.35 48.03,0 87.83,15.78 119.4,47.35 31.57,31.56 47.35,70.68 47.35,117.34 0,43.91 -15.78,81.66 -47.35,113.22 -31.57,31.57 -71.37,47.35 -119.4,47.35 z" /><path
     class="fil2 str1"
     d="m 6356.08,4112.58 c -72.74,0 -138.27,-19.56 -196.6,-58.67 -58.33,-39.11 -104.3,-91.95 -137.93,-158.51 -33.62,-66.56 -50.44,-141.7 -50.44,-225.42 0,-89.21 20.59,-169.49 61.76,-240.86 41.17,-71.37 96.41,-128.32 165.72,-170.87 69.31,-42.54 146.51,-63.82 231.6,-63.82 112.54,0 205.86,37.06 279.97,111.17 12.35,13.73 18.53,26.08 18.53,37.06 0,8.23 -6.18,20.24 -18.53,36.03 -12.35,15.78 -26.08,29.85 -41.17,42.2 -15.1,12.35 -28.14,18.53 -39.12,18.53 -12.35,0 -24.36,-3.78 -36.03,-11.32 -11.67,-7.55 -22.99,-16.12 -33.97,-25.73 -35.68,-30.19 -71.71,-54.55 -108.08,-73.08 -36.37,-18.53 -67.59,-27.79 -93.67,-27.79 -52.15,0 -91.61,21.61 -118.37,64.85 -26.76,43.23 -40.14,113.57 -40.14,211.01 0,67.25 10.64,125.24 31.91,173.96 21.27,48.72 51.81,86.12 91.61,112.2 39.8,26.08 87.84,39.11 144.1,39.11 41.17,0 76.86,-6.52 107.05,-19.56 30.19,-13.04 61.76,-33.28 94.7,-60.73 6.86,-4.12 12.7,-8.23 17.5,-12.35 4.8,-4.12 10.64,-6.18 17.5,-6.18 16.47,0 24.7,10.98 24.7,32.94 0,5.49 -1.03,13.38 -3.09,23.67 -2.06,10.29 -6.52,21.62 -13.38,33.97 -12.35,27.45 -36.03,58.33 -71.02,92.64 -35,34.31 -76.51,63.82 -124.55,88.52 -48.03,24.7 -101.56,37.06 -160.58,37.06 z m -14.41,-961.38 c -13.72,0 -20.58,-8.23 -20.58,-24.7 0,-5.49 0.69,-12.01 2.06,-19.55 1.37,-7.55 4.12,-15.44 8.24,-23.67 10.98,-26.08 25.05,-59.01 42.2,-98.82 17.15,-39.8 34.31,-78.57 51.46,-116.31 17.16,-37.74 30.54,-66.9 40.15,-87.49 10.98,-20.59 23.67,-34.31 38.09,-41.17 14.41,-6.86 32.59,-10.29 54.55,-10.29 32.94,0 61.42,4.12 85.43,12.35 24.02,8.24 36.03,20.59 36.03,37.06 0,6.86 -1.37,14.76 -4.12,23.67 -2.74,8.92 -8.23,18.19 -16.47,27.79 -26.08,28.82 -53.87,60.39 -83.37,94.7 -29.51,34.31 -59.01,67.93 -88.52,100.87 -29.51,32.94 -59.36,63.82 -89.55,92.64 -21.96,21.96 -40.48,32.94 -55.58,32.94 z"
     id="path3"
     style="fill:#ffffff;stroke:#808080" /></g>
 </g>
</svg>
